# xmcd
#
# Track frame offsets:
#	150
#	38747
#	92430
#	122267
#	185025
#	216840
#	251737
#	288095
#
# Disc length: 4292 seconds
# Revision: 0
# Processed by: cddbd v1.5.2PL0 Copyright (c) Steve Scherf et al.
# Submitted via: dBpowerAMP V12.0
#
DISCID=6810c208
DTITLE=Various Artist - The Tenth Anniversary Collection Part Two 1996-2000
DYEAR=1996
DGENRE=House
TTITLE0=George Benson - The Ghetto - El Barrio
TTITLE1=Masters at Work - MAW Expensive
TTITLE2=Nuyorican Soul - Mind Fluid
TTITLE3=Roni Size - Reprazent - Watching Windows (Roni Size Meets Nuyorican Soul)
TTITLE4=Nuyorican Soul - You Can Do It Baby
TTITLE5=Jerald Daemyon - Summer Madness
TTITLE6=Atmosfear - Dancing in Outer Space
TTITLE7=Karen Ramirez - Troubled Girl
EXTD=
EXTT0=
EXTT1=
EXTT2=
EXTT3=
EXTT4=
EXTT5=
EXTT6=
EXTT7=
PLAYORDER=
